<svg xmlns="http://www.w3.org/2000/svg" width="34" height="34" viewBox="0 0 34 34" fill="none">
  <g filter="url(#filter0_d_116_6833)">
    <path d="M15 2C13.2928 2 11.6023 2.3446 10.0251 3.01413C8.44788 3.68366 7.01477 4.66501 5.80761 5.90214C3.36964 8.40064 2 11.7893 2 15.3228C2 21.2114 5.731 26.2074 10.892 27.9794C11.542 28.0859 11.75 27.6729 11.75 27.3132V25.0617C8.149 25.861 7.382 23.2764 7.382 23.2764C6.784 21.731 5.939 21.318 5.939 21.318C4.756 20.492 6.03 20.5186 6.03 20.5186C7.33 20.6119 8.019 21.8909 8.019 21.8909C9.15 23.9159 11.061 23.3164 11.802 22.9967C11.919 22.1307 12.257 21.5445 12.621 21.2114C9.735 20.8783 6.706 19.7326 6.706 14.6566C6.706 13.1778 7.2 11.9921 8.045 11.0461C7.915 10.7131 7.46 9.32751 8.175 7.52894C8.175 7.52894 9.267 7.16923 11.75 8.88786C12.777 8.59476 13.895 8.44821 15 8.44821C16.105 8.44821 17.223 8.59476 18.25 8.88786C20.733 7.16923 21.825 7.52894 21.825 7.52894C22.54 9.32751 22.085 10.7131 21.955 11.0461C22.8 11.9921 23.294 13.1778 23.294 14.6566C23.294 19.7459 20.252 20.865 17.353 21.1981C17.821 21.6111 18.25 22.4238 18.25 23.6628V27.3132C18.25 27.6729 18.458 28.0993 19.121 27.9794C24.282 26.1941 28 21.2114 28 15.3228C28 13.5732 27.6637 11.8407 27.0104 10.2244C26.3571 8.60796 25.3995 7.13928 24.1924 5.90214C22.9852 4.66501 21.5521 3.68366 19.9749 3.01413C18.3977 2.3446 16.7072 2 15 2Z" fill="white"/>
  </g>
  <defs>
    <filter id="filter0_d_116_6833" x="0" y="0" width="34" height="34" filterUnits="userSpaceOnUse" color-interpolation-filters="sRGB">
      <feFlood flood-opacity="0" result="BackgroundImageFix"/>
      <feColorMatrix in="SourceAlpha" type="matrix" values="0 0 0 0 0 0 0 0 0 0 0 0 0 0 0 0 0 0 127 0" result="hardAlpha"/>
      <feOffset dx="2" dy="2"/>
      <feGaussianBlur stdDeviation="2"/>
      <feComposite in2="hardAlpha" operator="out"/>
      <feColorMatrix type="matrix" values="0 0 0 0 1 0 0 0 0 1 0 0 0 0 1 0 0 0 0.25 0"/>
      <feBlend mode="normal" in2="BackgroundImageFix" result="effect1_dropShadow_116_6833"/>
      <feBlend mode="normal" in="SourceGraphic" in2="effect1_dropShadow_116_6833" result="shape"/>
    </filter>
  </defs>
</svg>