<svg xmlns="http://www.w3.org/2000/svg" width="34" height="34" viewBox="0 0 34 34" fill="none">
  <g filter="url(#filter0_d_116_6834)">
    <path d="M19.0504 14.748C19.0504 12.3577 17.1382 10.4455 14.748 10.4455C12.3577 10.4455 10.4455 12.3577 10.4455 14.748C10.4455 17.1382 12.3577 19.0504 14.748 19.0504C17.1382 19.0504 19.0504 17.1382 19.0504 14.748ZM21.2813 14.748C21.2813 18.413 18.413 21.2813 14.748 21.2813C11.0829 21.2813 8.21464 18.413 8.21464 14.748C8.21464 11.0829 11.0829 8.21464 14.748 8.21464C18.413 8.21464 21.2813 11.0829 21.2813 14.748ZM23.0342 7.89594C23.0342 8.85203 22.3968 9.48943 21.4407 9.48943C20.4846 9.48943 19.8472 8.85203 19.8472 7.89594C19.8472 6.93984 20.4846 6.30244 21.4407 6.30244C22.3968 6.30244 23.0342 7.09919 23.0342 7.89594ZM14.748 4.2309C12.8358 4.2309 8.85203 4.07155 7.25854 4.70894C6.14309 5.18699 5.18699 6.14309 4.86829 7.25854C4.23089 8.85203 4.39024 12.8358 4.39024 14.748C4.39024 16.6602 4.23089 20.6439 4.86829 22.2374C5.18699 23.3529 6.14309 24.3089 7.25854 24.6276C8.85203 25.265 12.9951 25.1057 14.748 25.1057C16.5008 25.1057 20.6439 25.265 22.2374 24.6276C23.3529 24.1496 24.1496 23.3529 24.6276 22.2374C25.265 20.4846 25.1057 16.5008 25.1057 14.748C25.1057 12.9951 25.265 8.85203 24.6276 7.25854C24.3089 6.14309 23.3529 5.18699 22.2374 4.86829C20.6439 4.07155 16.6602 4.2309 14.748 4.2309ZM27.4959 14.748V20.0065C27.4959 21.9187 26.8585 23.8309 25.4244 25.4244C23.9903 26.8585 22.0781 27.4959 20.0065 27.4959H9.48943C7.57724 27.4959 5.66504 26.8585 4.07155 25.4244C2.79675 23.9903 2 22.0781 2 20.0065V9.48943C2 7.41789 2.79675 5.50569 4.07155 4.07155C5.66504 2.79675 7.57724 2 9.48943 2H20.0065C21.9187 2 23.8309 2.6374 25.4244 4.07155C26.6992 5.50569 27.4959 7.41789 27.4959 9.48943V14.748Z" fill="white"/>
  </g>
  <defs>
    <filter id="filter0_d_116_6834" x="0" y="0" width="33.4958" height="33.4961" filterUnits="userSpaceOnUse" color-interpolation-filters="sRGB">
      <feFlood flood-opacity="0" result="BackgroundImageFix"/>
      <feColorMatrix in="SourceAlpha" type="matrix" values="0 0 0 0 0 0 0 0 0 0 0 0 0 0 0 0 0 0 127 0" result="hardAlpha"/>
      <feOffset dx="2" dy="2"/>
      <feGaussianBlur stdDeviation="2"/>
      <feComposite in2="hardAlpha" operator="out"/>
      <feColorMatrix type="matrix" values="0 0 0 0 1 0 0 0 0 1 0 0 0 0 1 0 0 0 0.25 0"/>
      <feBlend mode="normal" in2="BackgroundImageFix" result="effect1_dropShadow_116_6834"/>
      <feBlend mode="normal" in="SourceGraphic" in2="effect1_dropShadow_116_6834" result="shape"/>
    </filter>
  </defs>
</svg>