<svg xmlns="http://www.w3.org/2000/svg" width="72" height="44" viewBox="0 0 72 44" fill="none">
  <path d="M33.0446 33.5809C33.3661 33.905 33.7486 34.1623 34.17 34.3379C34.5914 34.5135 35.0434 34.6039 35.5 34.6039C35.9565 34.6039 36.4086 34.5135 36.83 34.3379C37.2514 34.1623 37.6339 33.905 37.9554 33.5809L55.2471 16.2892C55.8983 15.638 56.2641 14.7548 56.2641 13.8338C56.2641 12.9129 55.8983 12.0296 55.2471 11.3784C54.5958 10.7272 53.7126 10.3613 52.7917 10.3613C51.8707 10.3613 50.9875 10.7272 50.3362 11.3784L35.5 26.2492L20.6637 11.3784C20.0125 10.7272 19.1293 10.3613 18.2083 10.3613C17.2874 10.3613 16.4041 10.7272 15.7529 11.3784C15.1017 12.0296 14.7358 12.9129 14.7358 13.8338C14.7358 14.7548 15.1017 15.638 15.7529 16.2892L33.0446 33.5809ZM37.9554 49.4201C37.6339 49.0959 37.2514 48.8386 36.83 48.6631C36.4086 48.4875 35.9565 48.3971 35.5 48.3971C35.0434 48.3971 34.5914 48.4875 34.17 48.6631C33.7486 48.8386 33.3661 49.0959 33.0446 49.4201L15.7529 66.7117C15.1017 67.3629 14.7358 68.2462 14.7358 69.1671C14.7358 70.0881 15.1017 70.9713 15.7529 71.6226C16.4041 72.2738 17.2874 72.6396 18.2083 72.6396C19.1293 72.6396 20.0125 72.2738 20.6637 71.6226L35.5 56.7517L50.3362 71.6226C50.6577 71.9467 51.0402 72.204 51.4617 72.3796C51.8831 72.5551 52.3351 72.6455 52.7917 72.6455C53.2482 72.6455 53.7002 72.5551 54.1216 72.3796C54.5431 72.204 54.9256 71.9467 55.2471 71.6226C55.5712 71.3011 55.8285 70.9186 56.0041 70.4971C56.1796 70.0757 56.27 69.6237 56.27 69.1671C56.27 68.7106 56.1796 68.2586 56.0041 67.8371C55.8285 67.4157 55.5712 67.0332 55.2471 66.7117L37.9554 49.4201Z" fill="white"/>
</svg>